<svg xmlns="http://www.w3.org/2000/svg" viewBox="13985 1397 16 12.571">
  <defs>
    <style>
      .cls-1 {
        fill: #58595b;
      }
    </style>
  </defs>
  <path id="email" class="cls-1" d="M13.714,0H2.286A2.286,2.286,0,0,0,0,2.286v8a2.286,2.286,0,0,0,2.286,2.286H13.714A2.286,2.286,0,0,0,16,10.285v-8A2.286,2.286,0,0,0,13.714,0Zm0,1.143a1.143,1.143,0,0,1,.48.114L8,5.588,1.806,1.257a1.143,1.143,0,0,1,.48-.114Zm1.143,9.143a1.143,1.143,0,0,1-1.143,1.143H2.286a1.143,1.143,0,0,1-1.143-1.143V2.206L7.657,6.777a.571.571,0,0,0,.651,0l6.514-4.571.034.08Z" transform="translate(13985 1397)"/>
</svg>
