<svg xmlns="http://www.w3.org/2000/svg" viewBox="13986.999 1327 12.001 24.999">
  <path id="etaCarrier" d="M-9834-847h-5a1,1,0,0,1-1,1,1,1,0,0,1-1-1h-2v-6h10l1,3.5,1,1v1.5h-1a1,1,0,0,1-1,1A1,1,0,0,1-9834-847Zm-8-1h10v-.1l-.7-.7-.2-.2-.049-.252-.8-2.749H-9842Zm-1-18a5.014,5.014,0,0,1,5-5,5.012,5.012,0,0,1,5,5,5.014,5.014,0,0,1-5,5A5.016,5.016,0,0,1-9843-866Zm1,0a4.012,4.012,0,0,0,4,4,4.013,4.013,0,0,0,4-4,4.035,4.035,0,0,0-3.5-3.95v3.248l1.5-.9.5.85-3,1.85v-5.049A4,4,0,0,0-9842-866Z" transform="translate(23830.001 2197.999)"/>
</svg>
