<svg xmlns="http://www.w3.org/2000/svg" viewBox="13987 1368 12 13.333">
  <g id="notification" transform="translate(13567 809.001)">
    <path id="Path_330" data-name="Path 330" d="M10,8V4.667A4.011,4.011,0,0,0,6.667.733V.667A.63.63,0,0,0,6,0a.63.63,0,0,0-.667.667V.733A4.011,4.011,0,0,0,2,4.667V8a1.964,1.964,0,0,1-2,2v1.333H12V10A1.964,1.964,0,0,1,10,8Z" transform="translate(420 558.999)"/>
    <path id="Path_331" data-name="Path 331" d="M8.067,19.333A1.942,1.942,0,0,0,9.933,18H6.2A1.942,1.942,0,0,0,8.067,19.333Z" transform="translate(417.933 552.999)"/>
  </g>
</svg>
