<svg xmlns="http://www.w3.org/2000/svg" viewBox="13985 1426 16.06 18.353">
  <defs>
    <style>
      .cls-1 {
        fill: #58595b;
      }
    </style>
  </defs>
  <path id="sms" class="cls-1" d="M-13930.854-1151.933a7.528,7.528,0,0,0,4.332-3.528,7.547,7.547,0,0,1-5.479-7.084,7.744,7.744,0,0,1,8.031-7.454,7.743,7.743,0,0,1,8.028,7.454,7.665,7.665,0,0,1-6.71,7.371,7.367,7.367,0,0,1-6.2,3.528A6.623,6.623,0,0,1-13930.854-1151.933Zm0-10.612a6.448,6.448,0,0,0,4.675,6l1.378.43-.717,1.231a8.883,8.883,0,0,1-1.294,1.752,6.551,6.551,0,0,0,3.157-2.64l.287-.458.545-.087a6.472,6.472,0,0,0,5.734-6.224c0-3.469-3.1-6.308-6.881-6.308S-13930.854-1166.014-13930.854-1162.545Zm9.752,2.154v-.8a5.3,5.3,0,0,0,.688.259,1.953,1.953,0,0,0,.515.084.778.778,0,0,0,.43-.112.373.373,0,0,0,.144-.318.275.275,0,0,0-.056-.2,1.158,1.158,0,0,0-.2-.171,3.635,3.635,0,0,0-.514-.259,2.225,2.225,0,0,1-.546-.346,1.676,1.676,0,0,1-.287-.371.874.874,0,0,1-.115-.49,1.074,1.074,0,0,1,.374-.829,1.548,1.548,0,0,1,1-.318c.2,0,.4.028.546.028a2.582,2.582,0,0,1,.6.2l-.286.661a3.732,3.732,0,0,0-.518-.175,1.733,1.733,0,0,0-.4-.056.478.478,0,0,0-.374.115.326.326,0,0,0-.116.287.415.415,0,0,0,.057.2.446.446,0,0,0,.175.171,6.131,6.131,0,0,0,.542.287,2.288,2.288,0,0,1,.776.545,1.069,1.069,0,0,1,.2.661,1.036,1.036,0,0,1-.4.86,1.772,1.772,0,0,1-1.091.315A2.42,2.42,0,0,1-13921.1-1160.391Zm-8.4-.031v-.8a5.327,5.327,0,0,0,.689.259,1.946,1.946,0,0,0,.514.084.744.744,0,0,0,.43-.115.362.362,0,0,0,.144-.315.276.276,0,0,0-.056-.2,1.128,1.128,0,0,0-.2-.171,3.486,3.486,0,0,0-.514-.259,2.26,2.26,0,0,1-.546-.346,1.758,1.758,0,0,1-.286-.371.866.866,0,0,1-.115-.49,1.083,1.083,0,0,1,.374-.832,1.564,1.564,0,0,1,1-.315,2.124,2.124,0,0,1,.6.087,2.531,2.531,0,0,1,.6.2l-.287.661a3.213,3.213,0,0,0-.518-.171,1.515,1.515,0,0,0-.4-.059.483.483,0,0,0-.374.115.328.328,0,0,0-.115.287.418.418,0,0,0,.028.2.509.509,0,0,0,.175.175c.084.056.259.143.542.287a2.194,2.194,0,0,1,.748.486,1,1,0,0,1,.2.661,1.04,1.04,0,0,1-.4.86,1.762,1.762,0,0,1-1.087.315A2.382,2.382,0,0,1-13929.5-1160.423Zm6.882.2v-2.21c0-.115,0-.4.027-.916h-.027l-1.032,3.126h-.775l-.976-3.154h-.028c.028.657.06,1.087.06,1.29v1.864h-.748v-4.017h1.15l.972,3.07,1.035-3.07h1.146v4.017Z" transform="translate(27917 2596)"/>
</svg>
